{"title":"A.Teachers.Crime.2008.DVDRip.AC3.X264-BARC0DE","uid":5694663,"size":1548972902,"categoryP":"video","categoryS":"movies","magnet":"?xt=urn:btih:0dc2c08a7541fc2abaac9dfb2fedee423cec7a4a&amp;dn=A.Teachers.Crime.2008.DVDRip.AC3.X264-BARC0DE&amp;tr=udp%3A%2F%2Ftracker.openbittorrent.com%3A80&amp;tr=udp%3A%2F%2Fopen.demonii.com%3A1337&amp;tr=udp%3A%2F%2Ftracker.coppersurfer.tk%3A6969&amp;tr=udp%3A%2F%2Fexodus.desync.com%3A6969","seeders":0,"leechers":1,"uploader":"TvTeam","files":4,"time":1279265446,"description":". \n  &lt;a href=&quot;\nhttp://www.torrentday.com/&quot; rel=&quot;nofollow&quot; target=&quot;_NEW&quot;&gt;\nhttp://www.torrentday.com/&lt;/a&gt;        :     The Hottest Private Tracker On The Net!!!\n\n\n               www . TorrentDay . Com \n(((((((((((((= Enjoy No RAR releases =))))))))))))))))))))\n\n\n...................................NFO:....................................\n\n.*******************************************************************************\n                  A.Teachers.Crime.2008.DVDRip.AC3.X264-BARC0DE\n*******************************************************************************\n\n-------------------------------------------------------------------------------\n                              General Information\n-------------------------------------------------------------------------------\nType.................: Movie\nName.................: A Teacher's Crime\nMovie Information....: http://www.imdb.com/title/tt1133948/\nGenre................: Crime | Drama | Mystery\n\n-------------------------------------------------------------------------------\n                                    PLOT\n-------------------------------------------------------------------------------\nCarrie is an attractive high school history teacher who one day decides to help \na troubled student, taking an special interest for him, unaware of the ruthless \nand perverse scheme masterminded for her..\n\n-------------------------------------------------------------------------------\n                                    CAST\n-------------------------------------------------------------------------------\nAshley Jones\t... \tCarrie Ryans\nErik Knudsen\t... \tJeremy Rander\nChris Mulkey\t... \tBill Rander\nClaudia Besso\t... \tPatti Meyers\nLarry Day\t... \tDetective Chay\nEllen Dubin\t... \tAnne Libby\nJames Gallanders\t... \tDean Ryans\nKyle Gatehouse\t... \tPete Morten\nArt Hindle\t... \tDavid McMillian\nPaula Jean Hixson\t... \tPrincipal Wilson\nTommie-Amber Pirie\t... \tJennifer Smith\nTom Rack\t... \tEvan\nSonya Salomaa\t... \tShannon\n-------------------------------------------------------------------------------\n                                    MEDiA iNFO\n-------------------------------------------------------------------------------\n\nGeneral\nComplete name                    : A.Teachers.Crime.2008.DVDRip.AC3.X264-BARC0DE.mkv\nFormat                           : Matroska\nFile size                        : 1.44 GiB\nDuration                         : 1h 29mn\nOverall bit rate                 : 2 300 Kbps\n\n\nVideo\nID                               : 1\nFormat                           : AVC\nFormat/Info                      : Advanced Video Codec\nFormat profile                   : &lt;a class=&quot;__cf_email__&quot; href=&quot;/cdn-cgi/l/email-protection&quot; data-cfemail=&quot;6028090708202c534e50&quot;&gt;[email&amp;#160;protected]&lt;/a&gt;&lt;script cf-hash='f9e31' type=&quot;text/javascript&quot;&gt;\n/* &lt;![CDATA[ */!function(){try{var t=&quot;currentScript&quot;in document?document.currentScript:function(){for(var t=document.getElementsByTagName(&quot;script&quot;),e=t.length;e--;)if(t[e].getAttribute(&quot;cf-hash&quot;))return t[e]}();if(t&amp;&amp;t.previousSibling){var e,r,n,i,c=t.previousSibling,a=c.getAttribute(&quot;data-cfemail&quot;);if(a){for(e=&quot;&quot;,r=parseInt(a.substr(0,2),16),n=2;a.length-n;n+=2)i=parseInt(a.substr(n,2),16)^r,e+=String.fromCharCode(i);e=document.createTextNode(e),c.parentNode.replaceChild(e,c)}}}catch(u){}}();/* ]]&gt; */&lt;/script&gt;\nFormat settings, CABAC           : Yes\nFormat settings, ReFrames        : 3 frames\nMuxing mode                      : Container profile=&lt;a class=&quot;__cf_email__&quot; href=&quot;/cdn-cgi/l/email-protection&quot; data-cfemail=&quot;4a1f242124253d240a79647a&quot;&gt;[email&amp;#160;protected]&lt;/a&gt;&lt;script cf-hash='f9e31' type=&quot;text/javascript&quot;&gt;\n/* &lt;![CDATA[ */!function(){try{var t=&quot;currentScript&quot;in document?document.currentScript:function(){for(var t=document.getElementsByTagName(&quot;script&quot;),e=t.length;e--;)if(t[e].getAttribute(&quot;cf-hash&quot;))return t[e]}();if(t&amp;&amp;t.previousSibling){var e,r,n,i,c=t.previousSibling,a=c.getAttribute(&quot;data-cfemail&quot;);if(a){for(e=&quot;&quot;,r=parseInt(a.substr(0,2),16),n=2;a.length-n;n+=2)i=parseInt(a.substr(n,2),16)^r,e+=String.fromCharCode(i);e=document.createTextNode(e),c.parentNode.replaceChild(e,c)}}}catch(u){}}();/* ]]&gt; */&lt;/script&gt;\nCodec ID                         : V_MPEG4/ISO/AVC\nDuration                         : 1h 29mn\nBit rate                         : 1 877 Kbps\nWidth                            : 720 pixels\nHeight                           : 400 pixels\nDisplay aspect ratio             : 16:9\nFrame rate                       : 25.000 fps\nColor space                      : YUV\nChroma subsampling               : 4:2:0\nBit depth                        : 8 bits\nScan type                        : Progressive\nBits/(Pixel*Frame)               : 0.261\nStream size                      : 1.13 GiB (79%)\nWriting library                  : x264 core 79\n\n\nAudio\nID                               : 2\nFormat                           : AC-3\nFormat/Info                      : Audio Coding 3\nMode extension                   : CM (complete main)\nCodec ID                         : A_AC3\nDuration                         : 1h 29mn\nBit rate mode                    : Constant\nBit rate                         : 448 Kbps\nChannel(s)                       : 6 channels\nChannel positions                : Front: L C R, Side: L R, LFE\nSampling rate                    : 48.0 KHz\nStream size                      : 288 MiB (19%)\nLanguage                         : English","torrent":{"xt":"urn:btih:0dc2c08a7541fc2abaac9dfb2fedee423cec7a4a","amp;dn":"A.Teachers.Crime.2008.DVDRip.AC3.X264-BARC0DE","amp;tr":["udp%3A%2F%2Ftracker.openbittorrent.com%3A80","udp%3A%2F%2Fopen.demonii.com%3A1337","udp%3A%2F%2Ftracker.coppersurfer.tk%3A6969","udp%3A%2F%2Fexodus.desync.com%3A6969"],"infoHash":"0dc2c08a7541fc2abaac9dfb2fedee423cec7a4a","infoHashBuffer":{"type":"Buffer","data":[13,194,192,138,117,65,252,42,186,172,157,251,47,237,238,66,60,236,122,74]},"announce":[],"urlList":[]}}